# xmcd
#
# Track frame offsets:
#	150
#	20660
#	36189
#	52560
#	70652
#	88205
#	103220
#	120794
#	137226
#	157454
#	174914
#	192924
#
# Disc length: 2814 seconds
#
# Revision: 1
# Processed by: cddbd v1.5.2PL0 Copyright (c) Steve Scherf et al.
# Submitted via: audiograbber 1.83.01
#
DISCID=9e0afc0c
DTITLE=Monika Nordli - Shipping out
DYEAR=2008
DGENRE=Country
TTITLE0=Guess it's been a while
TTITLE1=Major mode
TTITLE2=Ivan
TTITLE3=Shipping out
TTITLE4=Man in the moon
TTITLE5=Goodbye
TTITLE6=Karl Johan
TTITLE7=Jocelyn
TTITLE8=Wild horse riding
TTITLE9=I wasn't there
TTITLE10=My love will heal
TTITLE11=Dear angels
EXTD=
EXTT0=
EXTT1=
EXTT2=
EXTT3=
EXTT4=
EXTT5=
EXTT6=
EXTT7=
EXTT8=
EXTT9=
EXTT10=
EXTT11=
PLAYORDER=
